# Blender v2.81 (sub 16) OBJ File: 'chess.blend'
# www.blender.org
o low.003_Cube.010
v -0.761338 4.135848 0.589966
v -0.917566 4.135848 0.433738
v -0.761118 4.813946 0.589966
v -0.917566 4.813946 0.433518
v -0.917566 4.135848 -0.433738
v -0.761338 4.135848 -0.589966
v -0.917566 4.813946 -0.433518
v -0.761118 4.813946 -0.589966
v 0.917566 4.135848 0.433738
v 0.761338 4.135848 0.589966
v 0.917566 4.813946 0.433518
v 0.761118 4.813946 0.589966
v 0.761338 4.135848 -0.589966
v 0.917566 4.135848 -0.433738
v 0.761118 4.813946 -0.589966
v 0.917566 4.813946 -0.433518
v -0.736684 5.211853 0.252379
v -0.579979 5.211853 0.409085
v -0.579979 5.211853 -0.409085
v -0.736684 5.211853 -0.252379
v 0.736684 5.211853 -0.252379
v 0.579979 5.211853 -0.409085
v 0.579979 5.211853 0.409085
v 0.736684 5.211853 0.252379
vt 0.197195 0.948147
vt 0.092696 0.948111
vt 0.092696 0.701192
vt 0.197195 0.701156
vt 0.356515 0.369783
vt 0.356515 0.655453
vt 0.278586 0.621459
vt 0.278586 0.403776
vt 0.229008 0.863392
vt 0.468329 0.863392
vt 0.418330 0.984691
vt 0.279006 0.984691
vt 0.291045 0.070772
vt 0.291045 0.306323
vt 0.178232 0.257112
vt 0.178232 0.119983
vt 0.466063 0.306382
vt 0.466063 0.070713
vt 0.901440 0.042266
vt 0.990285 0.133663
vt 0.990285 0.810199
vt 0.901440 0.901596
vt 0.615264 0.901596
vt 0.526419 0.810199
vt 0.526419 0.133663
vt 0.615264 0.042266
vt 0.025339 0.918729
vt 0.025339 0.730574
vt 0.477412 0.655494
vt 0.477412 0.369741
vt 0.468389 0.675211
vt 0.228947 0.675211
vt 0.457328 0.348825
vt 0.282298 0.348825
vt 0.282298 0.028270
vt 0.457328 0.028270
vt 0.511512 0.684603
vt 0.511512 0.872798
vt 0.191979 0.973488
vt 0.087474 0.973488
vt 0.461585 0.994112
vt 0.020107 0.944148
vt 0.169470 0.299685
vt 0.169470 0.077410
vt 0.018856 0.098962
vt 0.011939 0.091846
vt 0.011939 0.022492
vt 0.018856 0.015376
vt 0.057264 0.015376
vt 0.064181 0.022492
vt 0.064181 0.091846
vt 0.057264 0.098962
vn 0.2972 -0.6302 0.7173
vn 0.3868 0.2530 0.8867
vn -0.3868 0.2530 0.8867
vn -0.2972 -0.6302 0.7173
vn 0.3868 0.2530 -0.8867
vn -0.3868 0.2530 -0.8867
vn -0.1889 0.8130 -0.5506
vn 0.1889 0.8130 -0.5506
vn 0.8867 0.2530 0.3868
vn 0.8867 0.2530 -0.3868
vn 0.5506 0.8130 -0.1889
vn 0.5506 0.8130 0.1889
vn -0.8867 0.2530 -0.3868
vn -0.8867 0.2530 0.3868
vn -0.5506 0.8130 0.1889
vn -0.5506 0.8130 -0.1889
vn -0.7173 -0.6302 0.2972
vn -0.7173 -0.6302 -0.2972
vn -0.1889 0.8130 0.5506
vn 0.1889 0.8130 0.5506
vn -0.2972 -0.6302 -0.7173
vn 0.2972 -0.6302 -0.7173
vn 0.7173 -0.6302 -0.2972
vn 0.7173 -0.6302 0.2972
s 1
f 10/1/1 12/2/2 3/3/3 1/4/4
f 15/5/5 8/6/6 19/7/7 22/8/8
f 11/9/9 16/10/10 21/11/11 24/12/12
f 7/13/13 4/14/14 17/15/15 20/16/16
f 2/17/17 4/14/14 7/13/13 5/18/18
f 21/19/11 22/20/8 19/21/7 20/22/16 17/23/15 18/24/19 23/25/20 24/26/12
f 3/3/3 12/2/2 23/27/20 18/28/19
f 6/29/21 8/6/6 15/5/5 13/30/22
f 14/31/23 16/10/10 11/9/9 9/32/24
f 1/33/4 3/34/3 4/14/14 2/17/17
f 8/35/6 6/36/21 5/18/18 7/13/13
f 16/10/10 14/31/23 13/37/22 15/38/5
f 12/2/2 10/1/1 9/39/24 11/40/9
f 15/38/5 22/41/8 21/11/11 16/10/10
f 23/27/20 12/2/2 11/40/9 24/42/12
f 3/34/3 18/43/19 17/15/15 4/14/14
f 19/44/7 8/35/6 7/13/13 20/16/16
f 5/45/18 6/46/21 13/47/22 14/48/23 9/49/24 10/50/1 1/51/4 2/52/17
